Format                         : MPEG-4
Format profile                 : Base Media / Version 2
Codec ID                       : mp42
File size                      : 249 MiB
Duration                       : 1h 16mn
Overall bit rate mode          : Variable
Overall bit rate               : 454 Kbps
Encoded date                   : UTC 2013-03-14 23:08:56
Tagged date                    : UTC 2013-03-14 23:08:56

Video
ID                             : 1
Format                         : AVC
Format/Info                    : Advanced Video Codec
Format profile                 : Main@L3.0
Format settings, CABAC         : Yes
Format settings, ReFrames      : 3 frames
Codec ID                       : avc1
Codec ID/Info                  : Advanced Video Coding
Duration                       : 1h 16mn
Source duration                : 1h 16mn
Bit rate mode                  : Variable
Bit rate                       : 325 Kbps
Width                          : 704 pixels
Height                         : 304 pixels
Display aspect ratio           : 2.35:1
Frame rate mode                : Variable
Frame rate                     : 30.000 fps
Minimum frame rate             : 30.000 fps
Maximum frame rate             : 30.030 fps
Standard                       : NTSC
Color space                    : YUV
Chroma subsampling             : 4:2:0
Bit depth                      : 8 bits
Scan type                      : Progressive
Bits/(Pixel*Frame)             : 0.051
Stream size                    : 178 MiB (72%)
Source stream size             : 178 MiB (72%)
Language                       : English
Encoded date                   : UTC 2013-03-14 23:08:56
Tagged date                    : UTC 2013-03-14 23:08:56
mdhd_Duration                  : 4600800

Audio
ID                             : 2
Format                         : AAC
Format/Info                    : Advanced Audio Codec
Format profile                 : LC
Codec ID                       : 40
Duration                       : 1h 16mn
Source duration                : 1h 16mn
Bit rate mode                  : Variable
Bit rate                       : 126 Kbps
Maximum bit rate               : 401 Kbps
Channel(s)                     : 2 channels
Channel positions              : Front: L R
Sampling rate                  : 44.1 KHz
Compression mode               : Lossy
Stream size                    : 68.9 MiB (28%)
Source stream size             : 68.9 MiB (28%)
Language                       : English
Encoded date                   : UTC 2013-03-14 23:08:56
Tagged date                    : UTC 2013-03-14 23:08:56
mdhd_Duration                  : 4600825
